<svg width="357" height="50" viewBox="0 0 357 50" fill="none" xmlns="http://www.w3.org/2000/svg">
<path d="M0 24.4C0 20.7111 0.445258 17.4222 1.33577 14.5333C2.22629 11.6444 3.49527 9.2 5.14273 7.2C6.83471 5.15556 8.88289 3.6 11.2873 2.53333C13.6917 1.46667 16.4077 0.933333 19.4355 0.933333C23.4873 0.933333 26.6264 1.55556 28.8527 2.8C31.079 4.04444 32.1921 5.82222 32.1921 8.13333C32.1921 10.2667 31.7691 12 30.9232 13.3333C30.0772 14.6667 28.6078 15.3333 26.5151 15.3333C25.402 15.3333 24.3556 15.3111 23.376 15.2667C22.3965 15.2222 21.5282 15.2889 20.7713 15.4667C20.0143 15.6 19.4132 15.9111 18.968 16.4C18.5227 16.8444 18.3001 17.5778 18.3001 18.6C18.3001 19.7556 18.5895 20.6 19.1683 21.1333C19.7917 21.6222 21.083 21.8667 23.0421 21.8667C23.4873 21.8667 23.8436 21.8667 24.1107 21.8667C24.4224 21.8222 24.6895 21.8 24.9122 21.8C25.1793 21.7556 25.4242 21.7333 25.6468 21.7333C25.914 21.6889 26.2257 21.6667 26.5819 21.6667C29.3425 21.6667 31.3461 22.0222 32.5929 22.7333C33.8396 23.4 34.4629 24.8 34.4629 26.9333C34.4629 27.6889 34.3294 28.4222 34.0622 29.1333C33.8396 29.8444 33.4834 30.4889 32.9936 31.0667C32.5038 31.6 31.8805 32.0444 31.1235 32.4C30.3666 32.7111 29.4761 32.8667 28.452 32.8667C27.7396 32.8667 27.0717 32.8444 26.4483 32.8C25.8695 32.7111 25.2461 32.6667 24.5782 32.6667C23.9549 32.6667 23.2425 32.7333 22.441 32.8667C21.3724 33.0889 20.4596 33.7556 19.7027 34.8667C18.9902 35.9778 18.634 37.2667 18.634 38.7333C18.634 39.3556 18.5672 40.1556 18.4337 41.1333C18.3446 42.0667 18.3001 42.8889 18.3001 43.6C18.3001 45.6 17.6322 47.1556 16.2964 48.2667C14.9607 49.3333 13.2909 49.8667 11.2873 49.8667C9.32815 49.8667 7.61391 49.3333 6.14456 48.2667C4.71973 47.1556 3.56206 45.5778 2.67155 43.5333C2.27081 42.6 1.89235 41.3778 1.53614 39.8667C1.22446 38.3111 0.957304 36.6667 0.734675 34.9333C0.512046 33.1556 0.333943 31.3556 0.200366 29.5333C0.0667887 27.7111 0 26 0 24.4Z" fill="#6DA4D6"/>
<path d="M52.6347 17.5333C52.6347 17.9778 52.7015 18.4667 52.835 19C52.9686 19.4889 53.1467 19.9556 53.3694 20.4C53.6365 20.8444 53.9482 21.2222 54.3044 21.5333C54.7051 21.8 55.1504 21.9333 55.6402 21.9333C56.1745 21.9333 56.7088 21.7778 57.2431 21.4667C57.7774 21.1111 58.2449 20.6667 58.6457 20.1333C59.0464 19.6 59.3803 19 59.6475 18.3333C59.9146 17.6222 60.0482 16.9111 60.0482 16.2C60.0482 14.9556 59.692 13.8667 58.9796 12.9333C58.3117 12 57.5548 11.5333 56.7088 11.5333C56.1745 11.5333 55.6624 11.7333 55.1726 12.1333C54.6829 12.4889 54.2376 12.9778 53.8369 13.6C53.4807 14.1778 53.1912 14.8222 52.9686 15.5333C52.746 16.2444 52.6347 16.9111 52.6347 17.5333ZM54.3712 35.1333C53.8369 35.1333 53.4584 35.3556 53.2358 35.8C53.0131 36.2444 52.8573 36.8 52.7683 37.4667C52.7237 38.0889 52.7237 38.7778 52.7683 39.5333C52.8128 40.2444 52.835 40.8889 52.835 41.4667C52.835 42.5333 52.746 43.5556 52.5679 44.5333C52.3898 45.4667 52.0558 46.2889 51.5661 47C51.1208 47.7111 50.4974 48.2667 49.696 48.6667C48.8945 49.1111 47.8704 49.3333 46.6237 49.3333C44.4419 49.3333 42.7054 48.6445 41.4142 47.2667C40.1229 45.8889 39.1656 44.0889 38.5423 41.8667C37.8744 39.6 37.4514 37.0889 37.2733 34.3333C37.0952 31.5333 37.0061 28.7333 37.0061 25.9333C37.0061 23.9778 37.0507 22.0222 37.1397 20.0667C37.2288 18.0667 37.4737 16.1556 37.8744 14.3333C38.2751 12.4667 38.8762 10.7333 39.6777 9.13333C40.4791 7.48889 41.57 6.06666 42.9503 4.86666C44.3751 3.66667 46.1339 2.73333 48.2266 2.06666C50.3193 1.35555 52.8573 0.999999 55.8405 0.999999C61.6734 0.999999 66.0369 2.33333 68.9311 5C71.8698 7.62222 73.3392 11.3333 73.3392 16.1333C73.3392 18.0889 73.1388 19.7111 72.7381 21C72.3373 22.2889 71.8475 23.3556 71.2687 24.2C70.6899 25 70.0443 25.6444 69.3318 26.1333C68.6194 26.6222 67.9738 27.0444 67.395 27.4C66.8161 27.7556 66.3264 28.1333 65.9256 28.5333C65.5249 28.8889 65.3245 29.3778 65.3245 30C65.3245 30.0889 65.3245 30.1778 65.3245 30.2667C65.3245 30.3556 65.3691 30.5111 65.4581 30.7333C65.9034 31.8444 66.5045 32.7111 67.2614 33.3333C68.0183 33.9111 68.8866 34.3556 69.8662 34.6667C70.8457 34.9333 71.8698 35.1111 72.9384 35.2C74.0071 35.2444 75.0534 35.2667 76.0775 35.2667C77.9031 35.2667 79.1053 35.6444 79.6841 36.4C80.2629 37.1111 80.5523 38.4 80.5523 40.2667C80.5523 41.2889 80.3074 42.3778 79.8177 43.5333C79.3279 44.6444 78.6155 45.6889 77.6804 46.6667C76.7899 47.6 75.6768 48.3778 74.341 49C73.0498 49.6222 71.5804 49.9333 69.9329 49.9333C69.2651 49.9333 68.4636 49.8444 67.5285 49.6667C66.638 49.4889 65.7698 49.2667 64.9238 49C63.6326 48.5556 62.5194 47.9111 61.5844 47.0667C60.6493 46.1778 59.8479 45.2222 59.18 44.2C58.5121 43.1778 57.9555 42.1333 57.5103 41.0667C57.065 40 56.6643 39.0222 56.3081 38.1333C55.9519 37.2444 55.6179 36.5333 55.3062 36C55.0391 35.4222 54.7274 35.1333 54.3712 35.1333Z" fill="#6DA4D6"/>
<path d="M83.1112 24.7333C83.1112 16.5111 84.0462 10.5111 85.9163 6.73333C87.7864 2.91111 90.3021 0.999999 93.4634 0.999999C95.5116 0.999999 97.2036 1.51111 98.5394 2.53333C99.8751 3.51111 100.921 4.91111 101.678 6.73333C102.48 8.55555 103.036 10.7333 103.348 13.2667C103.66 15.8 103.816 18.6 103.816 21.6667C103.816 25.8444 103.571 29.6667 103.081 33.1333C102.591 36.5556 101.857 39.4889 100.877 41.9333C99.8974 44.3778 98.7175 46.2667 97.3372 47.6C95.9569 48.9333 94.3539 49.6 92.5284 49.6C89.1889 49.6 86.7846 47.5333 85.3152 43.4C83.8459 39.2222 83.1112 33 83.1112 24.7333Z" fill="#6DA4D6"/>
<path d="M119.526 0.999999C121.663 0.999999 123.311 1.88889 124.468 3.66667C125.671 5.4 126.272 8.22222 126.272 12.1333C126.272 12.8 126.227 13.6444 126.138 14.6667C126.094 15.6444 126.027 16.6667 125.938 17.7333C125.849 18.7556 125.76 19.7778 125.671 20.8C125.626 21.7778 125.604 22.6222 125.604 23.3333C125.604 24.2222 125.604 25.1111 125.604 26C125.604 26.8444 125.737 27.6 126.005 28.2667C126.272 28.9333 126.717 29.4667 127.34 29.8667C127.964 30.2667 128.877 30.4667 130.079 30.4667C130.969 30.4667 131.86 30.4 132.75 30.2667C133.685 30.0889 134.62 30 135.555 30C136.357 30 137.136 30.2222 137.893 30.6667C138.65 31.0667 139.318 31.6222 139.897 32.3333C140.476 33 140.943 33.7556 141.299 34.6C141.655 35.4 141.834 36.2 141.834 37C141.834 38.6445 141.5 40.2222 140.832 41.7333C140.164 43.2 139.184 44.4889 137.893 45.6C136.602 46.7111 134.977 47.6 133.017 48.2667C131.058 48.8889 128.787 49.2 126.205 49.2C124.825 49.2 123.378 49.0444 121.864 48.7333C120.35 48.4667 118.925 48.0222 117.589 47.4C116.253 46.7778 115.074 45.9778 114.049 45C113.025 43.9778 112.268 42.7778 111.779 41.4C111.378 40.1111 111.022 38.6222 110.71 36.9333C110.443 35.2444 110.22 33.5111 110.042 31.7333C109.864 29.9111 109.73 28.1333 109.641 26.4C109.552 24.6667 109.508 23.1333 109.508 21.8C109.508 20.7778 109.552 19.5778 109.641 18.2C109.73 16.7778 109.909 15.2889 110.176 13.7333C110.443 12.1778 110.799 10.6444 111.244 9.13333C111.734 7.62222 112.335 6.26666 113.048 5.06666C113.805 3.86666 114.717 2.88889 115.786 2.13333C116.855 1.37778 118.101 0.999999 119.526 0.999999Z" fill="#6DA4D6"/>
<path d="M162.595 13.3333C162.194 13.3333 161.771 13.4444 161.326 13.6667C160.925 13.8889 160.569 14.1778 160.257 14.5333C159.946 14.8444 159.678 15.2222 159.456 15.6667C159.278 16.1111 159.189 16.5556 159.189 17C159.189 18.6 160.435 19.4 162.929 19.4C163.819 19.4 164.688 19.3333 165.534 19.2C166.424 19.0222 167.292 18.9333 168.138 18.9333C169.919 18.9333 171.322 19.4 172.346 20.3333C173.415 21.2222 173.949 22.4222 173.949 23.9333C173.949 25.6667 173.259 27.1111 171.879 28.2667C170.543 29.4222 168.829 30 166.736 30C166.513 30 166.224 30 165.868 30C165.511 29.9556 165.133 29.9333 164.732 29.9333C164.331 29.9333 163.953 29.9333 163.597 29.9333C163.241 29.8889 162.973 29.8667 162.795 29.8667C161.504 29.8667 160.524 30.2 159.857 30.8667C159.189 31.5333 158.855 32.4667 158.855 33.6667C158.855 34.5111 159.055 35.0889 159.456 35.4C159.857 35.7111 160.614 35.8667 161.727 35.8667C163.151 35.8667 164.443 35.6667 165.6 35.2667C166.758 34.8667 167.849 34.4444 168.873 34C169.897 33.5111 170.854 33.0667 171.745 32.6667C172.68 32.2667 173.615 32.0667 174.55 32.0667C175.975 32.0667 177.133 32.5778 178.023 33.6C178.914 34.6222 179.359 35.9778 179.359 37.6667C179.359 39.3111 178.958 40.8889 178.157 42.4C177.355 43.9111 176.198 45.2222 174.684 46.3333C173.214 47.4445 171.389 48.3333 169.207 49C167.025 49.6667 164.532 50 161.727 50C155.894 50 151.53 47.9333 148.636 43.8C145.742 39.6667 144.295 33.4889 144.295 25.2667C144.295 17.0444 145.809 11.0222 148.836 7.2C151.909 3.33333 156.673 1.4 163.129 1.4C170.743 1.4 174.55 4.02222 174.55 9.26667C174.55 13.0889 172.725 15 169.073 15C168.227 15 167.493 14.9111 166.869 14.7333C166.246 14.5556 165.689 14.3778 165.2 14.2C164.71 13.9778 164.242 13.7778 163.797 13.6C163.396 13.4222 162.996 13.3333 162.595 13.3333Z" fill="#6DA4D6"/>
<path d="M199.329 29.3333C199.151 29.1556 198.951 29.0667 198.728 29.0667C198.283 29.0667 197.949 29.3778 197.726 30C197.504 30.5778 197.392 31.1556 197.392 31.7333C197.392 32.7111 197.504 33.6 197.726 34.4C197.949 35.1556 198.172 35.9111 198.394 36.6667C198.661 37.3778 198.906 38.1333 199.129 38.9333C199.351 39.6889 199.463 40.5556 199.463 41.5333C199.463 42.4222 199.307 43.2889 198.995 44.1333C198.728 44.9333 198.327 45.6667 197.793 46.3333C197.259 46.9556 196.591 47.4667 195.789 47.8667C195.032 48.2667 194.142 48.4667 193.118 48.4667C191.604 48.4667 190.29 48.0444 189.177 47.2C188.064 46.3556 187.107 45.2667 186.305 43.9333C185.504 42.5556 184.858 41.0222 184.369 39.3333C183.879 37.6 183.5 35.8889 183.233 34.2C182.966 32.4667 182.788 30.8222 182.699 29.2667C182.565 27.7111 182.498 26.4222 182.498 25.4C182.498 24.3778 182.565 23.0667 182.699 21.4667C182.788 19.8667 182.988 18.1778 183.3 16.4C183.567 14.5778 183.946 12.7556 184.435 10.9333C184.925 9.11111 185.571 7.46666 186.372 6C187.174 4.53333 188.131 3.35556 189.244 2.46667C190.357 1.53333 191.671 1.06666 193.185 1.06666C194.654 1.06666 195.901 1.53333 196.925 2.46667C197.993 3.35556 198.906 4.46667 199.663 5.8C200.42 7.13333 201.066 8.6 201.6 10.2C202.179 11.8 202.713 13.2667 203.203 14.6C203.693 15.9333 204.182 17.0667 204.672 18C205.207 18.8889 205.785 19.3333 206.409 19.3333C206.765 19.3333 207.032 19.2222 207.21 19C207.388 18.7333 207.522 18.4222 207.611 18.0667C207.745 17.7111 207.811 17.3556 207.811 17C207.856 16.6444 207.878 16.3778 207.878 16.2C207.878 14.5111 207.656 12.8444 207.21 11.2C206.81 9.55556 206.609 7.88889 206.609 6.2C206.609 5.4 206.765 4.62222 207.077 3.86666C207.433 3.11111 207.9 2.44444 208.479 1.86667C209.058 1.28889 209.748 0.844443 210.55 0.533331C211.351 0.177777 212.219 0 213.154 0C214 0 214.824 0.200001 215.626 0.600001C216.427 1 217.184 1.53333 217.896 2.2C218.609 2.86666 219.21 3.6 219.7 4.4C220.234 5.2 220.613 6 220.835 6.8C220.969 7.24444 221.147 7.95556 221.369 8.93334C221.637 9.86667 221.882 10.9556 222.104 12.2C222.327 13.4 222.527 14.6889 222.705 16.0667C222.883 17.4 222.972 18.7111 222.972 20C222.972 20.9778 222.95 22.3778 222.906 24.2C222.861 25.9778 222.727 27.9333 222.505 30.0667C222.282 32.1556 221.926 34.3111 221.436 36.5333C220.946 38.7111 220.234 40.7111 219.299 42.5333C218.408 44.3111 217.273 45.7778 215.893 46.9333C214.557 48.0444 212.887 48.6 210.884 48.6C209.192 48.6 207.856 48.2444 206.876 47.5333C205.941 46.8222 205.207 45.8889 204.672 44.7333C204.182 43.5778 203.804 42.2889 203.537 40.8667C203.27 39.4444 202.98 38.0222 202.669 36.6C202.401 35.1778 202.023 33.8222 201.533 32.5333C201.043 31.2444 200.309 30.1778 199.329 29.3333Z" fill="#6DA4D6"/>
<path d="M243.353 49.4667C240.503 49.4667 238.099 49.0222 236.14 48.1333C234.225 47.2 232.667 45.7556 231.464 43.8C230.307 41.8 229.483 39.2667 228.993 36.2C228.459 33.0889 228.192 29.3333 228.192 24.9333C228.192 24.4 228.214 23.2222 228.259 21.4C228.259 19.5778 228.37 17.5778 228.593 15.4C228.771 13.1778 229.082 11.0222 229.528 8.93334C229.928 6.84444 230.529 5.26666 231.331 4.2C232.221 3.04444 233.691 2.15556 235.739 1.53333C237.832 0.866666 240.347 0.533331 243.286 0.533331C250.677 0.533331 256.31 2.53333 260.184 6.53333C264.102 10.4889 266.061 16.2444 266.061 23.8C266.061 27.6667 265.527 31.1778 264.458 34.3333C263.434 37.4889 261.942 40.2 259.983 42.4667C258.069 44.6889 255.709 46.4222 252.904 47.6667C250.098 48.8667 246.915 49.4667 243.353 49.4667ZM242.752 28.4667C242.752 31.1778 243.642 32.5333 245.423 32.5333C246.937 32.5333 248.139 31.6667 249.03 29.9333C249.92 28.1556 250.366 25.7778 250.366 22.8C250.366 17.5556 248.919 14.9333 246.024 14.9333C243.843 14.9333 242.752 16.3333 242.752 19.1333V28.4667Z" fill="#6DA4D6"/>
<path d="M288.829 21.4667C288.829 23.4222 289.564 24.4 291.033 24.4C291.79 24.4 292.391 24.1111 292.836 23.5333C293.282 22.9556 293.504 22.1778 293.504 21.2C293.504 20.5778 293.415 19.9333 293.237 19.2667C293.104 18.5556 292.926 17.8889 292.703 17.2667C292.48 16.6444 292.213 16.1333 291.901 15.7333C291.634 15.3333 291.389 15.1333 291.167 15.1333C290.944 15.1333 290.699 15.3556 290.432 15.8C290.165 16.2 289.898 16.7111 289.631 17.3333C289.408 17.9556 289.208 18.6444 289.029 19.4C288.896 20.1556 288.829 20.8444 288.829 21.4667ZM271.998 33.4667C271.998 29.2889 272.421 25.2444 273.267 21.3333C274.069 17.3778 275.249 13.8889 276.807 10.8667C278.41 7.84445 280.369 5.42222 282.685 3.6C285 1.73333 287.649 0.799999 290.632 0.799999C293.527 0.799999 296.109 1.53333 298.38 3C300.651 4.42222 302.565 6.46667 304.124 9.13333C305.727 11.7556 306.951 14.9111 307.797 18.6C308.643 22.2889 309.066 26.4 309.066 30.9333C309.066 37.0222 308.242 41.6667 306.595 44.8667C304.992 48.0222 302.899 49.6 300.317 49.6C298.313 49.6 296.666 48.7333 295.374 47C294.128 45.2667 293.504 43.0444 293.504 40.3333C293.504 39.4889 293.549 38.6444 293.638 37.8C293.727 36.9556 293.771 36.1556 293.771 35.4C293.771 34.2444 293.593 33.4222 293.237 32.9333C292.881 32.4 292.28 32.1333 291.434 32.1333C290.721 32.1333 290.232 32.3111 289.965 32.6667C289.697 32.9778 289.564 33.5111 289.564 34.2667C289.564 34.8889 289.608 35.5333 289.697 36.2C289.786 36.8667 289.831 37.6222 289.831 38.4667C289.831 40.0222 289.608 41.4667 289.163 42.8C288.762 44.0889 288.161 45.2 287.36 46.1333C286.603 47.0667 285.69 47.8 284.621 48.3333C283.597 48.8667 282.462 49.1333 281.215 49.1333C278.321 49.1333 276.05 47.7556 274.403 45C272.8 42.2 271.998 38.3556 271.998 33.4667Z" fill="#6DA4D6"/>
<path d="M329.082 17.5333C329.082 17.9778 329.149 18.4667 329.283 19C329.416 19.4889 329.594 19.9556 329.817 20.4C330.084 20.8444 330.396 21.2222 330.752 21.5333C331.153 21.8 331.598 21.9333 332.088 21.9333C332.622 21.9333 333.156 21.7778 333.691 21.4667C334.225 21.1111 334.693 20.6667 335.093 20.1333C335.494 19.6 335.828 19 336.095 18.3333C336.362 17.6222 336.496 16.9111 336.496 16.2C336.496 14.9556 336.14 13.8667 335.427 12.9333C334.759 12 334.002 11.5333 333.156 11.5333C332.622 11.5333 332.11 11.7333 331.62 12.1333C331.13 12.4889 330.685 12.9778 330.285 13.6C329.928 14.1778 329.639 14.8222 329.416 15.5333C329.194 16.2444 329.082 16.9111 329.082 17.5333ZM330.819 35.1333C330.285 35.1333 329.906 35.3556 329.683 35.8C329.461 36.2444 329.305 36.8 329.216 37.4667C329.171 38.0889 329.171 38.7778 329.216 39.5333C329.26 40.2444 329.283 40.8889 329.283 41.4667C329.283 42.5333 329.194 43.5556 329.016 44.5333C328.837 45.4667 328.504 46.2889 328.014 47C327.568 47.7111 326.945 48.2667 326.144 48.6667C325.342 49.1111 324.318 49.3333 323.071 49.3333C320.89 49.3333 319.153 48.6445 317.862 47.2667C316.571 45.8889 315.613 44.0889 314.99 41.8667C314.322 39.6 313.899 37.0889 313.721 34.3333C313.543 31.5333 313.454 28.7333 313.454 25.9333C313.454 23.9778 313.498 22.0222 313.587 20.0667C313.676 18.0667 313.921 16.1556 314.322 14.3333C314.723 12.4667 315.324 10.7333 316.125 9.13333C316.927 7.48889 318.018 6.06666 319.398 4.86666C320.823 3.66667 322.582 2.73333 324.674 2.06666C326.767 1.35555 329.305 0.999999 332.288 0.999999C338.121 0.999999 342.485 2.33333 345.379 5C348.317 7.62222 349.787 11.3333 349.787 16.1333C349.787 18.0889 349.586 19.7111 349.186 21C348.785 22.2889 348.295 23.3556 347.716 24.2C347.138 25 346.492 25.6444 345.779 26.1333C345.067 26.6222 344.421 27.0444 343.843 27.4C343.264 27.7556 342.774 28.1333 342.373 28.5333C341.973 28.8889 341.772 29.3778 341.772 30C341.772 30.0889 341.772 30.1778 341.772 30.2667C341.772 30.3556 341.817 30.5111 341.906 30.7333C342.351 31.8444 342.952 32.7111 343.709 33.3333C344.466 33.9111 345.334 34.3556 346.314 34.6667C347.293 34.9333 348.317 35.1111 349.386 35.2C350.455 35.2444 351.501 35.2667 352.525 35.2667C354.351 35.2667 355.553 35.6444 356.132 36.4C356.711 37.1111 357 38.4 357 40.2667C357 41.2889 356.755 42.3778 356.265 43.5333C355.776 44.6444 355.063 45.6889 354.128 46.6667C353.238 47.6 352.124 48.3778 350.789 49C349.497 49.6222 348.028 49.9333 346.381 49.9333C345.713 49.9333 344.911 49.8444 343.976 49.6667C343.086 49.4889 342.217 49.2667 341.371 49C340.08 48.5556 338.967 47.9111 338.032 47.0667C337.097 46.1778 336.296 45.2222 335.628 44.2C334.96 43.1778 334.403 42.1333 333.958 41.0667C333.513 40 333.112 39.0222 332.756 38.1333C332.4 37.2444 332.066 36.5333 331.754 36C331.487 35.4222 331.175 35.1333 330.819 35.1333Z" fill="#6DA4D6"/>
</svg>
