<svg width="150" height="129" viewBox="0 0 150 129" fill="none" xmlns="http://www.w3.org/2000/svg">
<ellipse cx="57.1531" cy="57.9967" rx="7.89054" ry="17.2711" fill="white"/>
<ellipse cx="81.4645" cy="57.9967" rx="10.4496" ry="17.2711" fill="white"/>
<path d="M93.8673 42.0577C89.415 39.328 78.4103 7.07596 66.3555 0.356788C64.8434 -0.483108 63.1213 0.314794 62.1973 1.15469C52.9987 9.09171 47.8323 39.9999 47.4543 43.4855C41.5739 46.3411 21.7906 44.0734 12.592 44.8713C7.55172 45.3332 6.75366 48.5668 6.45964 49.4067C5.7456 51.3805 6.50165 53.6482 7.80374 56.1259C9.81987 59.9054 15.2802 65.0708 23.6388 70.1522C27.755 72.6299 32.5853 75.1076 38.0877 77.3753C39.5998 78.0052 41.1119 78.5931 42.708 79.1811C49.2184 75.4015 57.0309 78.8451 56.9889 79.1811C56.7789 80.3149 47.5383 82.2047 42.708 79.1811C31.0312 99.1286 24.2688 117.48 29.8552 121.428C33.6774 124.158 42.204 119.118 54.9308 111.307C58.669 108.997 62.0713 106.772 65.1375 104.672C69.5058 101.648 73.202 98.9186 76.1842 96.6089C80.3005 97.9528 84.0807 99.1286 87.5669 100.178C90.9691 101.228 94.1193 102.152 96.9755 102.95C118.103 108.829 125.159 108.661 126.335 106.352C128.646 101.774 118.817 87.2441 107.644 78.0472C106.132 76.8294 110.08 72.8399 115.415 68.0524C118.733 65.0708 122.597 61.7952 126.083 58.6456C131.208 53.9842 135.408 49.6587 135.618 47.097C136.458 37.3122 98.8657 45.1653 93.8673 42.0577ZM57.1989 74.3097C52.8307 74.3097 49.3024 67.3385 49.3024 58.6876C49.3024 50.0787 51.9486 41.7217 56.2749 41.7217C60.6432 41.7217 63.7514 49.4067 63.7514 58.0157C63.7934 66.6246 61.5672 74.3097 57.1989 74.3097ZM81.3925 74.3097C81.3085 74.3097 81.2245 74.3097 81.1405 74.3097H81.0985C76.7302 74.3097 73.706 66.4566 73.706 57.8477C73.706 49.2388 75.8062 41.7217 80.1744 41.7217H80.2164C84.5427 41.7637 87.9029 49.4067 87.9029 58.0157C87.9029 66.4566 85.5508 73.9737 81.3925 74.3097ZM91.5152 80.5249C87.1049 80.5249 83.7447 79.727 83.5347 78.8451C83.3246 77.9212 85.8448 76.0315 91.0531 76.0735C95.4634 76.0735 98.5716 76.8714 98.5716 77.7952C98.5716 78.7191 95.9255 80.5249 91.5152 80.5249Z" fill="url(#paint0_linear_7_136)"/>
<path d="M81.4332 74.4149C81.3473 74.4149 81.2614 74.4149 81.1755 74.4149H81.1325C76.666 74.4149 73.5739 66.5534 73.5739 57.9351C73.5739 49.3169 75.7212 41.7917 80.1877 41.7917H80.2306C84.9548 44.23 85.6849 73.5741 81.4332 74.4149Z" fill="black"/>
<path d="M65.0436 104.693C65.0436 106.5 64.5844 121.922 63.9582 125.872C62.7059 126.209 60.4517 126.797 57.5296 127.343C49.7234 128.856 39.4125 129.738 39.0368 128.184C38.995 127.973 39.0785 127.805 39.2455 127.595C43.2947 123.015 53.8978 122.174 55.0667 122.216C54.9832 118.602 54.9414 114.946 54.8579 111.332" fill="#EF6E8D"/>
<path d="M96.9672 102.974C97.2593 108.659 97.5515 114.344 97.8853 120.029C91.4165 122.621 78.8545 126.55 75.8078 124.669C72.803 122.83 83.32 117.228 89.8723 117.187C89.1211 111.543 88.3699 105.858 87.6187 100.215" fill="#EF6E8D"/>
<path d="M98.7384 77.6398C98.7384 78.569 96.076 80.3852 91.6387 80.3852C87.2014 80.3852 83.8206 79.5827 83.6093 78.6957C83.398 77.7665 85.9336 75.8659 91.1738 75.9082C95.6111 75.9504 98.7384 76.7106 98.7384 77.6398Z" fill="#EF6E8D"/>
<path d="M56.9396 79.1683C56.7295 80.3095 47.4843 82.2114 42.6516 79.1683C49.1652 75.3644 56.9817 78.8302 56.9396 79.1683Z" fill="#EF6E8D"/>
<path d="M57.0025 74.4149C52.7208 74.4149 49.2625 67.4362 49.2625 58.7759C49.2625 50.1577 51.8563 41.7917 56.0968 41.7917C60.3373 43.3052 60.5843 74.3308 57.0025 74.4149Z" fill="black"/>
<path d="M23.6927 69.9911C6.06443 69.3122 0.39819 69.9911 0.0204408 71.3064C-0.315336 72.4521 3.5461 76.3557 7.15571 76.5254C7.36557 76.5254 2.32891 75.9314 1.02777 78.7318C0.691993 79.4531 1.48947 80.5139 2.16102 81.023C4.72133 83.0173 9.84193 80.3017 9.96785 80.6412C10.0098 80.8109 8.8346 81.4049 6.81994 82.593C4.55344 83.9507 3.67202 84.5872 3.88188 85.2236C5.43485 90.5275 16.9352 82.3808 20.4609 80.8109C23.0632 79.6228 24.5742 79.1137 26.7147 78.5621C28.9812 77.968 33.0106 77.4164 38.1731 77.2891" fill="#EF6E8D"/>
<path d="M126.185 58.7293C144.2 58.1436 148.808 60.4447 149.227 62.2856C149.353 62.8295 149.269 63.7081 148.85 64.2939C147.342 66.4277 142.44 65.3817 140.848 65.047C140.848 65.047 140.848 65.047 140.806 65.047C140.597 65.0051 140.471 64.9633 140.387 64.9633H140.429C140.513 64.9633 140.638 65.0051 140.806 65.047C140.806 65.047 140.806 65.047 140.848 65.047C142.733 65.6746 148.557 69.2727 147.635 70.6115C146.965 71.6157 144.409 73.1637 135.988 70.2768C139.759 72.5361 141.518 73.9586 141.267 74.5444C139.801 77.7241 130.877 76.3434 115.586 68.1012" fill="#EF6E8D"/>
<path d="M126.102 58.6784C126.267 58.6784 126.723 58.6784 126.888 58.6364C126.019 59.5195 125.439 60.6129 124.611 62.0007C122.417 65.7015 120.885 68.7715 120.844 70.7901C118.649 69.7387 117.656 69.192 115.586 68.0565C119.105 64.9866 122.583 61.8325 126.102 58.6784Z" fill="#B44F67"/>
<path d="M20.4727 69.9372L23.7101 70.0644L38.1731 77.3599L31.4041 77.8265C30.8155 77.0206 30.1428 76.2147 29.344 75.4088C26.2748 72.27 22.8692 70.7431 20.4727 69.9372Z" fill="#B44F67"/>
<path d="M87.6489 100.215C90.7221 101.112 93.7952 102.009 96.8274 102.906C96.8684 104.171 96.9503 105.435 97.0323 106.617C94.082 105.476 91.1318 105.19 88.6323 107.678C88.2226 104.578 88.0587 103.273 87.6489 100.215Z" fill="#B44F67"/>
<path d="M54.8073 111.351C58.2194 109.117 61.6315 106.926 65.0436 104.693C64.9594 107.516 64.9173 109.201 64.833 112.025C61.0839 110.634 57.7139 112.362 54.8915 115.354C54.8915 114.005 54.8494 112.657 54.8073 111.351Z" fill="#B44F67"/>
<path fill-rule="evenodd" clip-rule="evenodd" d="M73.1344 75.5601C73.9151 75.4216 74.6602 75.9421 74.7987 76.7227C75.0651 78.2239 75.1689 79.9196 74.56 81.3022C74.2365 82.0366 73.7132 82.6786 72.9493 83.1205C72.2018 83.553 71.3187 83.7397 70.3484 83.7397C68.5123 83.7397 66.9915 83.1465 66.012 81.8184C65.0949 80.5751 64.8467 78.9374 64.8929 77.2645C64.9148 76.472 65.575 75.8473 66.3675 75.8692C67.16 75.891 67.7847 76.5512 67.7629 77.3437C67.7235 78.77 67.9672 79.6324 68.3226 80.1142C68.6155 80.5114 69.1478 80.8686 70.3484 80.8686C70.9607 80.8686 71.3127 80.7505 71.5115 80.6354C71.6939 80.5299 71.8282 80.3816 71.9325 80.1449C72.179 79.5853 72.2187 78.6158 71.9718 77.2244C71.8333 76.4437 72.3538 75.6986 73.1344 75.5601Z" fill="black"/>
<defs>
<linearGradient id="paint0_linear_7_136" x1="70.9082" y1="0" x2="70.9082" y2="122.177" gradientUnits="userSpaceOnUse">
<stop stop-color="#FFCE6D"/>
<stop offset="1" stop-color="#FFDF6D"/>
</linearGradient>
</defs>
</svg>
