<svg width="357" height="182" viewBox="0 0 357 182" fill="none" xmlns="http://www.w3.org/2000/svg">
<ellipse cx="167.153" cy="57.9967" rx="7.89054" ry="17.2711" fill="white"/>
<ellipse cx="191.465" cy="57.9967" rx="10.4496" ry="17.2711" fill="white"/>
<path d="M203.867 42.0577C199.415 39.328 188.41 7.07596 176.356 0.356788C174.844 -0.483108 173.121 0.314794 172.197 1.15469C162.999 9.09171 157.832 39.9999 157.454 43.4855C151.574 46.3411 131.791 44.0734 122.592 44.8713C117.552 45.3332 116.754 48.5668 116.46 49.4067C115.746 51.3805 116.502 53.6482 117.804 56.1259C119.82 59.9054 125.28 65.0708 133.639 70.1522C137.755 72.6299 142.585 75.1076 148.088 77.3753C149.6 78.0052 151.112 78.5931 152.708 79.1811C159.218 75.4015 167.031 78.8451 166.989 79.1811C166.779 80.3149 157.538 82.2047 152.708 79.1811C141.031 99.1286 134.269 117.48 139.855 121.428C143.677 124.158 152.204 119.118 164.931 111.307C168.669 108.997 172.071 106.772 175.138 104.672C179.506 101.648 183.202 98.9186 186.184 96.6089C190.301 97.9528 194.081 99.1286 197.567 100.178C200.969 101.228 204.119 102.152 206.976 102.95C228.103 108.829 235.159 108.661 236.336 106.352C238.646 101.774 228.817 87.2441 217.644 78.0472C216.132 76.8294 220.08 72.8399 225.415 68.0524C228.733 65.0708 232.597 61.7952 236.084 58.6456C241.208 53.9842 245.408 49.6587 245.618 47.097C246.458 37.3122 208.866 45.1653 203.867 42.0577ZM167.199 74.3097C162.831 74.3097 159.303 67.3385 159.303 58.6876C159.303 50.0787 161.949 41.7217 166.275 41.7217C170.643 41.7217 173.751 49.4067 173.751 58.0157C173.793 66.6246 171.567 74.3097 167.199 74.3097ZM191.393 74.3097C191.309 74.3097 191.225 74.3097 191.141 74.3097H191.099C186.73 74.3097 183.706 66.4566 183.706 57.8477C183.706 49.2388 185.806 41.7217 190.175 41.7217H190.217C194.543 41.7637 197.903 49.4067 197.903 58.0157C197.903 66.4566 195.551 73.9737 191.393 74.3097ZM201.515 80.5249C197.105 80.5249 193.745 79.727 193.535 78.8451C193.325 77.9212 195.845 76.0315 201.053 76.0735C205.464 76.0735 208.572 76.8714 208.572 77.7952C208.572 78.7191 205.926 80.5249 201.515 80.5249Z" fill="url(#paint0_linear_203_2)"/>
<path d="M191.433 74.4149C191.347 74.4149 191.261 74.4149 191.175 74.4149H191.132C186.666 74.4149 183.574 66.5534 183.574 57.9351C183.574 49.3169 185.721 41.7917 190.188 41.7917H190.231C194.955 44.23 195.685 73.5741 191.433 74.4149Z" fill="black"/>
<path d="M175.044 104.693C175.044 106.5 174.584 121.922 173.958 125.872C172.706 126.209 170.452 126.797 167.53 127.343C159.723 128.856 149.412 129.738 149.037 128.184C148.995 127.973 149.079 127.805 149.245 127.595C153.295 123.015 163.898 122.174 165.067 122.216C164.983 118.602 164.941 114.946 164.858 111.332" fill="#EF6E8D"/>
<path d="M206.967 102.974C207.259 108.659 207.551 114.344 207.885 120.029C201.417 122.621 188.854 126.55 185.808 124.669C182.803 122.83 193.32 117.228 199.872 117.187C199.121 111.543 198.37 105.858 197.619 100.215" fill="#EF6E8D"/>
<path d="M208.738 77.6398C208.738 78.569 206.076 80.3852 201.639 80.3852C197.201 80.3852 193.821 79.5827 193.609 78.6957C193.398 77.7665 195.934 75.8659 201.174 75.9082C205.611 75.9504 208.738 76.7106 208.738 77.6398Z" fill="#EF6E8D"/>
<path d="M166.94 79.1683C166.73 80.3095 157.484 82.2114 152.652 79.1683C159.165 75.3644 166.982 78.8302 166.94 79.1683Z" fill="#EF6E8D"/>
<path d="M167.002 74.4149C162.721 74.4149 159.262 67.4362 159.262 58.7759C159.262 50.1577 161.856 41.7917 166.097 41.7917C170.337 43.3052 170.584 74.3308 167.002 74.4149Z" fill="black"/>
<path d="M133.693 69.9911C116.064 69.3122 110.398 69.9911 110.02 71.3064C109.685 72.4521 113.546 76.3557 117.156 76.5254C117.366 76.5254 112.329 75.9314 111.028 78.7318C110.692 79.4531 111.489 80.5139 112.161 81.023C114.721 83.0173 119.842 80.3017 119.968 80.6412C120.01 80.8109 118.835 81.4049 116.82 82.593C114.553 83.9507 113.672 84.5872 113.882 85.2236C115.435 90.5275 126.935 82.3808 130.461 80.8109C133.063 79.6228 134.574 79.1137 136.715 78.5621C138.981 77.968 143.011 77.4164 148.173 77.2891" fill="#EF6E8D"/>
<path d="M236.185 58.7293C254.2 58.1436 258.808 60.4447 259.227 62.2856C259.353 62.8295 259.269 63.7081 258.85 64.2939C257.342 66.4277 252.44 65.3817 250.848 65.047C250.848 65.047 250.848 65.047 250.806 65.047C250.597 65.0051 250.471 64.9633 250.387 64.9633H250.429C250.513 64.9633 250.639 65.0051 250.806 65.047C250.806 65.047 250.806 65.047 250.848 65.047C252.733 65.6746 258.557 69.2727 257.635 70.6115C256.965 71.6157 254.409 73.1637 245.988 70.2768C249.759 72.5361 251.518 73.9586 251.267 74.5444C249.801 77.7241 240.877 76.3434 225.586 68.1012" fill="#EF6E8D"/>
<path d="M236.102 58.6784C236.267 58.6784 236.723 58.6784 236.888 58.6364C236.019 59.5195 235.439 60.6129 234.611 62.0007C232.417 65.7015 230.885 68.7715 230.844 70.7901C228.649 69.7387 227.656 69.192 225.586 68.0565C229.105 64.9866 232.583 61.8325 236.102 58.6784Z" fill="#B44F67"/>
<path d="M130.473 69.9372L133.71 70.0644L148.173 77.3599L141.404 77.8265C140.815 77.0206 140.143 76.2147 139.344 75.4088C136.275 72.27 132.869 70.7431 130.473 69.9372Z" fill="#B44F67"/>
<path d="M197.649 100.215C200.722 101.112 203.795 102.009 206.827 102.906C206.868 104.171 206.95 105.435 207.032 106.617C204.082 105.476 201.132 105.19 198.632 107.678C198.223 104.578 198.059 103.273 197.649 100.215Z" fill="#B44F67"/>
<path d="M164.807 111.351C168.219 109.117 171.632 106.926 175.044 104.693C174.959 107.516 174.917 109.201 174.833 112.025C171.084 110.634 167.714 112.362 164.892 115.354C164.892 114.005 164.849 112.657 164.807 111.351Z" fill="#B44F67"/>
<path fill-rule="evenodd" clip-rule="evenodd" d="M183.134 75.5601C183.915 75.4216 184.66 75.9421 184.799 76.7227C185.065 78.2239 185.169 79.9196 184.56 81.3022C184.237 82.0366 183.713 82.6786 182.949 83.1205C182.202 83.553 181.319 83.7397 180.348 83.7397C178.512 83.7397 176.992 83.1465 176.012 81.8184C175.095 80.5751 174.847 78.9374 174.893 77.2645C174.915 76.472 175.575 75.8473 176.368 75.8692C177.16 75.891 177.785 76.5512 177.763 77.3437C177.724 78.77 177.967 79.6324 178.323 80.1142C178.616 80.5114 179.148 80.8686 180.348 80.8686C180.961 80.8686 181.313 80.7505 181.512 80.6354C181.694 80.5299 181.828 80.3816 181.933 80.1449C182.179 79.5853 182.219 78.6158 181.972 77.2244C181.833 76.4437 182.354 75.6986 183.134 75.5601Z" fill="black"/>
<path d="M0 156.4C0 152.711 0.445258 149.422 1.33577 146.533C2.22629 143.644 3.49527 141.2 5.14273 139.2C6.83471 137.156 8.88289 135.6 11.2873 134.533C13.6917 133.467 16.4077 132.933 19.4355 132.933C23.4873 132.933 26.6264 133.556 28.8527 134.8C31.079 136.044 32.1921 137.822 32.1921 140.133C32.1921 142.267 31.7691 144 30.9232 145.333C30.0772 146.667 28.6078 147.333 26.5151 147.333C25.402 147.333 24.3556 147.311 23.376 147.267C22.3965 147.222 21.5282 147.289 20.7713 147.467C20.0143 147.6 19.4132 147.911 18.968 148.4C18.5227 148.844 18.3001 149.578 18.3001 150.6C18.3001 151.756 18.5895 152.6 19.1683 153.133C19.7917 153.622 21.083 153.867 23.0421 153.867C23.4873 153.867 23.8436 153.867 24.1107 153.867C24.4224 153.822 24.6895 153.8 24.9122 153.8C25.1793 153.756 25.4242 153.733 25.6468 153.733C25.914 153.689 26.2257 153.667 26.5819 153.667C29.3425 153.667 31.3461 154.022 32.5929 154.733C33.8396 155.4 34.4629 156.8 34.4629 158.933C34.4629 159.689 34.3294 160.422 34.0622 161.133C33.8396 161.844 33.4834 162.489 32.9936 163.067C32.5038 163.6 31.8805 164.044 31.1235 164.4C30.3666 164.711 29.4761 164.867 28.452 164.867C27.7396 164.867 27.0717 164.844 26.4483 164.8C25.8695 164.711 25.2461 164.667 24.5782 164.667C23.9549 164.667 23.2425 164.733 22.441 164.867C21.3724 165.089 20.4596 165.756 19.7027 166.867C18.9902 167.978 18.634 169.267 18.634 170.733C18.634 171.356 18.5672 172.156 18.4337 173.133C18.3446 174.067 18.3001 174.889 18.3001 175.6C18.3001 177.6 17.6322 179.156 16.2964 180.267C14.9607 181.333 13.2909 181.867 11.2873 181.867C9.32815 181.867 7.61391 181.333 6.14456 180.267C4.71973 179.156 3.56206 177.578 2.67155 175.533C2.27081 174.6 1.89235 173.378 1.53614 171.867C1.22446 170.311 0.957304 168.667 0.734675 166.933C0.512046 165.156 0.333943 163.356 0.200366 161.533C0.0667887 159.711 0 158 0 156.4Z" fill="#6DA4D6"/>
<path d="M52.6347 149.533C52.6347 149.978 52.7015 150.467 52.835 151C52.9686 151.489 53.1467 151.956 53.3694 152.4C53.6365 152.844 53.9482 153.222 54.3044 153.533C54.7051 153.8 55.1504 153.933 55.6402 153.933C56.1745 153.933 56.7088 153.778 57.2431 153.467C57.7774 153.111 58.2449 152.667 58.6457 152.133C59.0464 151.6 59.3803 151 59.6475 150.333C59.9146 149.622 60.0482 148.911 60.0482 148.2C60.0482 146.956 59.692 145.867 58.9796 144.933C58.3117 144 57.5548 143.533 56.7088 143.533C56.1745 143.533 55.6624 143.733 55.1726 144.133C54.6829 144.489 54.2376 144.978 53.8369 145.6C53.4807 146.178 53.1912 146.822 52.9686 147.533C52.746 148.244 52.6347 148.911 52.6347 149.533ZM54.3712 167.133C53.8369 167.133 53.4584 167.356 53.2358 167.8C53.0131 168.244 52.8573 168.8 52.7683 169.467C52.7237 170.089 52.7237 170.778 52.7683 171.533C52.8128 172.244 52.835 172.889 52.835 173.467C52.835 174.533 52.746 175.556 52.5679 176.533C52.3898 177.467 52.0558 178.289 51.5661 179C51.1208 179.711 50.4974 180.267 49.696 180.667C48.8945 181.111 47.8704 181.333 46.6237 181.333C44.4419 181.333 42.7054 180.644 41.4142 179.267C40.1229 177.889 39.1656 176.089 38.5423 173.867C37.8744 171.6 37.4514 169.089 37.2733 166.333C37.0952 163.533 37.0061 160.733 37.0061 157.933C37.0061 155.978 37.0507 154.022 37.1397 152.067C37.2288 150.067 37.4737 148.156 37.8744 146.333C38.2751 144.467 38.8762 142.733 39.6777 141.133C40.4791 139.489 41.57 138.067 42.9503 136.867C44.3751 135.667 46.1339 134.733 48.2266 134.067C50.3193 133.356 52.8573 133 55.8405 133C61.6734 133 66.0369 134.333 68.9311 137C71.8698 139.622 73.3392 143.333 73.3392 148.133C73.3392 150.089 73.1388 151.711 72.7381 153C72.3373 154.289 71.8475 155.356 71.2687 156.2C70.6899 157 70.0443 157.644 69.3318 158.133C68.6194 158.622 67.9738 159.044 67.395 159.4C66.8161 159.756 66.3264 160.133 65.9256 160.533C65.5249 160.889 65.3245 161.378 65.3245 162C65.3245 162.089 65.3245 162.178 65.3245 162.267C65.3245 162.356 65.3691 162.511 65.4581 162.733C65.9034 163.844 66.5045 164.711 67.2614 165.333C68.0183 165.911 68.8866 166.356 69.8662 166.667C70.8457 166.933 71.8698 167.111 72.9384 167.2C74.0071 167.244 75.0534 167.267 76.0775 167.267C77.9031 167.267 79.1053 167.644 79.6841 168.4C80.2629 169.111 80.5523 170.4 80.5523 172.267C80.5523 173.289 80.3074 174.378 79.8177 175.533C79.3279 176.644 78.6155 177.689 77.6804 178.667C76.7899 179.6 75.6768 180.378 74.341 181C73.0498 181.622 71.5804 181.933 69.9329 181.933C69.2651 181.933 68.4636 181.844 67.5285 181.667C66.638 181.489 65.7698 181.267 64.9238 181C63.6326 180.556 62.5194 179.911 61.5844 179.067C60.6493 178.178 59.8479 177.222 59.18 176.2C58.5121 175.178 57.9555 174.133 57.5103 173.067C57.065 172 56.6643 171.022 56.3081 170.133C55.9519 169.244 55.6179 168.533 55.3062 168C55.0391 167.422 54.7274 167.133 54.3712 167.133Z" fill="#6DA4D6"/>
<path d="M83.1112 156.733C83.1112 148.511 84.0462 142.511 85.9163 138.733C87.7864 134.911 90.3021 133 93.4634 133C95.5116 133 97.2036 133.511 98.5394 134.533C99.8751 135.511 100.921 136.911 101.678 138.733C102.48 140.556 103.036 142.733 103.348 145.267C103.66 147.8 103.816 150.6 103.816 153.667C103.816 157.844 103.571 161.667 103.081 165.133C102.591 168.556 101.857 171.489 100.877 173.933C99.8974 176.378 98.7175 178.267 97.3372 179.6C95.9569 180.933 94.3539 181.6 92.5284 181.6C89.1889 181.6 86.7846 179.533 85.3152 175.4C83.8459 171.222 83.1112 165 83.1112 156.733Z" fill="#6DA4D6"/>
<path d="M119.526 133C121.663 133 123.311 133.889 124.468 135.667C125.671 137.4 126.272 140.222 126.272 144.133C126.272 144.8 126.227 145.644 126.138 146.667C126.094 147.644 126.027 148.667 125.938 149.733C125.849 150.756 125.76 151.778 125.671 152.8C125.626 153.778 125.604 154.622 125.604 155.333C125.604 156.222 125.604 157.111 125.604 158C125.604 158.844 125.737 159.6 126.005 160.267C126.272 160.933 126.717 161.467 127.34 161.867C127.964 162.267 128.877 162.467 130.079 162.467C130.969 162.467 131.86 162.4 132.75 162.267C133.685 162.089 134.62 162 135.555 162C136.357 162 137.136 162.222 137.893 162.667C138.65 163.067 139.318 163.622 139.897 164.333C140.476 165 140.943 165.756 141.299 166.6C141.655 167.4 141.834 168.2 141.834 169C141.834 170.644 141.5 172.222 140.832 173.733C140.164 175.2 139.184 176.489 137.893 177.6C136.602 178.711 134.977 179.6 133.017 180.267C131.058 180.889 128.787 181.2 126.205 181.2C124.825 181.2 123.378 181.044 121.864 180.733C120.35 180.467 118.925 180.022 117.589 179.4C116.253 178.778 115.074 177.978 114.049 177C113.025 175.978 112.268 174.778 111.779 173.4C111.378 172.111 111.022 170.622 110.71 168.933C110.443 167.244 110.22 165.511 110.042 163.733C109.864 161.911 109.73 160.133 109.641 158.4C109.552 156.667 109.508 155.133 109.508 153.8C109.508 152.778 109.552 151.578 109.641 150.2C109.73 148.778 109.909 147.289 110.176 145.733C110.443 144.178 110.799 142.644 111.244 141.133C111.734 139.622 112.335 138.267 113.048 137.067C113.805 135.867 114.717 134.889 115.786 134.133C116.855 133.378 118.101 133 119.526 133Z" fill="#6DA4D6"/>
<path d="M162.595 145.333C162.194 145.333 161.771 145.444 161.326 145.667C160.925 145.889 160.569 146.178 160.257 146.533C159.946 146.844 159.678 147.222 159.456 147.667C159.278 148.111 159.189 148.556 159.189 149C159.189 150.6 160.435 151.4 162.929 151.4C163.819 151.4 164.688 151.333 165.534 151.2C166.424 151.022 167.292 150.933 168.138 150.933C169.919 150.933 171.322 151.4 172.346 152.333C173.415 153.222 173.949 154.422 173.949 155.933C173.949 157.667 173.259 159.111 171.879 160.267C170.543 161.422 168.829 162 166.736 162C166.513 162 166.224 162 165.868 162C165.511 161.956 165.133 161.933 164.732 161.933C164.331 161.933 163.953 161.933 163.597 161.933C163.241 161.889 162.973 161.867 162.795 161.867C161.504 161.867 160.524 162.2 159.857 162.867C159.189 163.533 158.855 164.467 158.855 165.667C158.855 166.511 159.055 167.089 159.456 167.4C159.857 167.711 160.614 167.867 161.727 167.867C163.151 167.867 164.443 167.667 165.6 167.267C166.758 166.867 167.849 166.444 168.873 166C169.897 165.511 170.854 165.067 171.745 164.667C172.68 164.267 173.615 164.067 174.55 164.067C175.975 164.067 177.133 164.578 178.023 165.6C178.914 166.622 179.359 167.978 179.359 169.667C179.359 171.311 178.958 172.889 178.157 174.4C177.355 175.911 176.198 177.222 174.684 178.333C173.214 179.444 171.389 180.333 169.207 181C167.025 181.667 164.532 182 161.727 182C155.894 182 151.53 179.933 148.636 175.8C145.742 171.667 144.295 165.489 144.295 157.267C144.295 149.044 145.809 143.022 148.836 139.2C151.909 135.333 156.673 133.4 163.129 133.4C170.743 133.4 174.55 136.022 174.55 141.267C174.55 145.089 172.725 147 169.073 147C168.227 147 167.493 146.911 166.869 146.733C166.246 146.556 165.689 146.378 165.2 146.2C164.71 145.978 164.242 145.778 163.797 145.6C163.396 145.422 162.996 145.333 162.595 145.333Z" fill="#6DA4D6"/>
<path d="M199.329 161.333C199.151 161.156 198.951 161.067 198.728 161.067C198.283 161.067 197.949 161.378 197.726 162C197.504 162.578 197.392 163.156 197.392 163.733C197.392 164.711 197.504 165.6 197.726 166.4C197.949 167.156 198.172 167.911 198.394 168.667C198.661 169.378 198.906 170.133 199.129 170.933C199.351 171.689 199.463 172.556 199.463 173.533C199.463 174.422 199.307 175.289 198.995 176.133C198.728 176.933 198.327 177.667 197.793 178.333C197.259 178.956 196.591 179.467 195.789 179.867C195.032 180.267 194.142 180.467 193.118 180.467C191.604 180.467 190.29 180.044 189.177 179.2C188.064 178.356 187.107 177.267 186.305 175.933C185.504 174.556 184.858 173.022 184.369 171.333C183.879 169.6 183.5 167.889 183.233 166.2C182.966 164.467 182.788 162.822 182.699 161.267C182.565 159.711 182.498 158.422 182.498 157.4C182.498 156.378 182.565 155.067 182.699 153.467C182.788 151.867 182.988 150.178 183.3 148.4C183.567 146.578 183.946 144.756 184.435 142.933C184.925 141.111 185.571 139.467 186.372 138C187.174 136.533 188.131 135.356 189.244 134.467C190.357 133.533 191.671 133.067 193.185 133.067C194.654 133.067 195.901 133.533 196.925 134.467C197.993 135.356 198.906 136.467 199.663 137.8C200.42 139.133 201.066 140.6 201.6 142.2C202.179 143.8 202.713 145.267 203.203 146.6C203.693 147.933 204.182 149.067 204.672 150C205.207 150.889 205.785 151.333 206.409 151.333C206.765 151.333 207.032 151.222 207.21 151C207.388 150.733 207.522 150.422 207.611 150.067C207.745 149.711 207.811 149.356 207.811 149C207.856 148.644 207.878 148.378 207.878 148.2C207.878 146.511 207.656 144.844 207.21 143.2C206.81 141.556 206.609 139.889 206.609 138.2C206.609 137.4 206.765 136.622 207.077 135.867C207.433 135.111 207.9 134.444 208.479 133.867C209.058 133.289 209.748 132.844 210.55 132.533C211.351 132.178 212.219 132 213.154 132C214 132 214.824 132.2 215.626 132.6C216.427 133 217.184 133.533 217.896 134.2C218.609 134.867 219.21 135.6 219.7 136.4C220.234 137.2 220.613 138 220.835 138.8C220.969 139.244 221.147 139.956 221.369 140.933C221.637 141.867 221.882 142.956 222.104 144.2C222.327 145.4 222.527 146.689 222.705 148.067C222.883 149.4 222.972 150.711 222.972 152C222.972 152.978 222.95 154.378 222.906 156.2C222.861 157.978 222.727 159.933 222.505 162.067C222.282 164.156 221.926 166.311 221.436 168.533C220.946 170.711 220.234 172.711 219.299 174.533C218.408 176.311 217.273 177.778 215.893 178.933C214.557 180.044 212.887 180.6 210.884 180.6C209.192 180.6 207.856 180.244 206.876 179.533C205.941 178.822 205.207 177.889 204.672 176.733C204.182 175.578 203.804 174.289 203.537 172.867C203.27 171.444 202.98 170.022 202.669 168.6C202.401 167.178 202.023 165.822 201.533 164.533C201.043 163.244 200.309 162.178 199.329 161.333Z" fill="#6DA4D6"/>
<path d="M243.353 181.467C240.503 181.467 238.099 181.022 236.14 180.133C234.225 179.2 232.667 177.756 231.464 175.8C230.307 173.8 229.483 171.267 228.993 168.2C228.459 165.089 228.192 161.333 228.192 156.933C228.192 156.4 228.214 155.222 228.259 153.4C228.259 151.578 228.37 149.578 228.593 147.4C228.771 145.178 229.082 143.022 229.528 140.933C229.928 138.844 230.529 137.267 231.331 136.2C232.221 135.044 233.691 134.156 235.739 133.533C237.832 132.867 240.347 132.533 243.286 132.533C250.677 132.533 256.31 134.533 260.184 138.533C264.102 142.489 266.061 148.244 266.061 155.8C266.061 159.667 265.527 163.178 264.458 166.333C263.434 169.489 261.942 172.2 259.983 174.467C258.069 176.689 255.709 178.422 252.904 179.667C250.098 180.867 246.915 181.467 243.353 181.467ZM242.752 160.467C242.752 163.178 243.642 164.533 245.423 164.533C246.937 164.533 248.139 163.667 249.03 161.933C249.92 160.156 250.366 157.778 250.366 154.8C250.366 149.556 248.919 146.933 246.024 146.933C243.843 146.933 242.752 148.333 242.752 151.133V160.467Z" fill="#6DA4D6"/>
<path d="M288.829 153.467C288.829 155.422 289.564 156.4 291.033 156.4C291.79 156.4 292.391 156.111 292.836 155.533C293.282 154.956 293.504 154.178 293.504 153.2C293.504 152.578 293.415 151.933 293.237 151.267C293.104 150.556 292.926 149.889 292.703 149.267C292.48 148.644 292.213 148.133 291.901 147.733C291.634 147.333 291.389 147.133 291.167 147.133C290.944 147.133 290.699 147.356 290.432 147.8C290.165 148.2 289.898 148.711 289.631 149.333C289.408 149.956 289.208 150.644 289.029 151.4C288.896 152.156 288.829 152.844 288.829 153.467ZM271.998 165.467C271.998 161.289 272.421 157.244 273.267 153.333C274.069 149.378 275.249 145.889 276.807 142.867C278.41 139.844 280.369 137.422 282.685 135.6C285 133.733 287.649 132.8 290.632 132.8C293.527 132.8 296.109 133.533 298.38 135C300.651 136.422 302.565 138.467 304.124 141.133C305.727 143.756 306.951 146.911 307.797 150.6C308.643 154.289 309.066 158.4 309.066 162.933C309.066 169.022 308.242 173.667 306.595 176.867C304.992 180.022 302.899 181.6 300.317 181.6C298.313 181.6 296.666 180.733 295.374 179C294.128 177.267 293.504 175.044 293.504 172.333C293.504 171.489 293.549 170.644 293.638 169.8C293.727 168.956 293.771 168.156 293.771 167.4C293.771 166.244 293.593 165.422 293.237 164.933C292.881 164.4 292.28 164.133 291.434 164.133C290.721 164.133 290.232 164.311 289.965 164.667C289.697 164.978 289.564 165.511 289.564 166.267C289.564 166.889 289.608 167.533 289.697 168.2C289.786 168.867 289.831 169.622 289.831 170.467C289.831 172.022 289.608 173.467 289.163 174.8C288.762 176.089 288.161 177.2 287.36 178.133C286.603 179.067 285.69 179.8 284.621 180.333C283.597 180.867 282.462 181.133 281.215 181.133C278.321 181.133 276.05 179.756 274.403 177C272.8 174.2 271.998 170.356 271.998 165.467Z" fill="#6DA4D6"/>
<path d="M329.082 149.533C329.082 149.978 329.149 150.467 329.283 151C329.416 151.489 329.594 151.956 329.817 152.4C330.084 152.844 330.396 153.222 330.752 153.533C331.153 153.8 331.598 153.933 332.088 153.933C332.622 153.933 333.156 153.778 333.691 153.467C334.225 153.111 334.693 152.667 335.093 152.133C335.494 151.6 335.828 151 336.095 150.333C336.362 149.622 336.496 148.911 336.496 148.2C336.496 146.956 336.14 145.867 335.427 144.933C334.759 144 334.002 143.533 333.156 143.533C332.622 143.533 332.11 143.733 331.62 144.133C331.13 144.489 330.685 144.978 330.285 145.6C329.928 146.178 329.639 146.822 329.416 147.533C329.194 148.244 329.082 148.911 329.082 149.533ZM330.819 167.133C330.285 167.133 329.906 167.356 329.683 167.8C329.461 168.244 329.305 168.8 329.216 169.467C329.171 170.089 329.171 170.778 329.216 171.533C329.26 172.244 329.283 172.889 329.283 173.467C329.283 174.533 329.194 175.556 329.016 176.533C328.837 177.467 328.504 178.289 328.014 179C327.568 179.711 326.945 180.267 326.144 180.667C325.342 181.111 324.318 181.333 323.071 181.333C320.89 181.333 319.153 180.644 317.862 179.267C316.571 177.889 315.613 176.089 314.99 173.867C314.322 171.6 313.899 169.089 313.721 166.333C313.543 163.533 313.454 160.733 313.454 157.933C313.454 155.978 313.498 154.022 313.587 152.067C313.676 150.067 313.921 148.156 314.322 146.333C314.723 144.467 315.324 142.733 316.125 141.133C316.927 139.489 318.018 138.067 319.398 136.867C320.823 135.667 322.582 134.733 324.674 134.067C326.767 133.356 329.305 133 332.288 133C338.121 133 342.485 134.333 345.379 137C348.317 139.622 349.787 143.333 349.787 148.133C349.787 150.089 349.586 151.711 349.186 153C348.785 154.289 348.295 155.356 347.716 156.2C347.138 157 346.492 157.644 345.779 158.133C345.067 158.622 344.421 159.044 343.843 159.4C343.264 159.756 342.774 160.133 342.373 160.533C341.973 160.889 341.772 161.378 341.772 162C341.772 162.089 341.772 162.178 341.772 162.267C341.772 162.356 341.817 162.511 341.906 162.733C342.351 163.844 342.952 164.711 343.709 165.333C344.466 165.911 345.334 166.356 346.314 166.667C347.293 166.933 348.317 167.111 349.386 167.2C350.455 167.244 351.501 167.267 352.525 167.267C354.351 167.267 355.553 167.644 356.132 168.4C356.711 169.111 357 170.4 357 172.267C357 173.289 356.755 174.378 356.265 175.533C355.776 176.644 355.063 177.689 354.128 178.667C353.238 179.6 352.124 180.378 350.789 181C349.497 181.622 348.028 181.933 346.381 181.933C345.713 181.933 344.911 181.844 343.976 181.667C343.086 181.489 342.217 181.267 341.371 181C340.08 180.556 338.967 179.911 338.032 179.067C337.097 178.178 336.296 177.222 335.628 176.2C334.96 175.178 334.403 174.133 333.958 173.067C333.513 172 333.112 171.022 332.756 170.133C332.4 169.244 332.066 168.533 331.754 168C331.487 167.422 331.175 167.133 330.819 167.133Z" fill="#6DA4D6"/>
<defs>
<linearGradient id="paint0_linear_203_2" x1="180.908" y1="0" x2="180.908" y2="122.177" gradientUnits="userSpaceOnUse">
<stop stop-color="#FFCE6D"/>
<stop offset="1" stop-color="#FFDF6D"/>
</linearGradient>
</defs>
</svg>
