<svg width="25" height="26" viewBox="0 0 25 26" fill="none" xmlns="http://www.w3.org/2000/svg">
<path fill-rule="evenodd" clip-rule="evenodd" d="M14.5384 16.4084C13.0131 17.6076 11.099 18.3213 9.02081 18.3213C4.03875 18.3213 0 14.2199 0 9.16063C0 4.10135 4.03875 0 9.02081 0C14.0029 0 18.0416 4.10135 18.0416 9.16063C18.0416 11.5824 17.1162 13.7848 15.6048 15.4228L24.7886 24.7489C25.0705 25.0351 25.0705 25.4992 24.7886 25.7854C24.5068 26.0716 24.0499 26.0716 23.768 25.7854L14.5828 16.4577C14.5671 16.4418 14.5523 16.4253 14.5384 16.4084ZM16.5983 9.16063C16.5983 13.4104 13.2057 16.8556 9.02081 16.8556C4.83588 16.8556 1.44333 13.4104 1.44333 9.16063C1.44333 4.91084 4.83588 1.4657 9.02081 1.4657C13.2057 1.4657 16.5983 4.91084 16.5983 9.16063Z" fill="black"/>
</svg>
