<svg width="26" height="27" viewBox="0 0 26 27" fill="none" xmlns="http://www.w3.org/2000/svg">
<mask id="path-1-inside-1_7_161" fill="white">
<path fill-rule="evenodd" clip-rule="evenodd" d="M12.7883 12.6591C16.284 12.6591 19.1179 9.82528 19.1179 6.32956C19.1179 2.83384 16.284 0 12.7883 0C9.29258 0 6.45874 2.83384 6.45874 6.32956C6.45874 9.82528 9.29258 12.6591 12.7883 12.6591ZM24.8517 21.6667C25.5008 23.2339 25.835 24.9137 25.835 26.61H12.9175L0 26.61C0 24.9137 0.33412 23.2339 0.983284 21.6667C1.63245 20.0995 2.58394 18.6755 3.78344 17.476C4.98294 16.2765 6.40695 15.325 7.97417 14.6758C9.54139 14.0267 11.2211 13.6925 12.9175 13.6925C14.6138 13.6925 16.2936 14.0267 17.8608 14.6758C19.428 15.325 20.852 16.2765 22.0515 17.476C23.251 18.6755 24.2025 20.0995 24.8517 21.6667Z"/>
</mask>
<path d="M25.835 26.61V28.61H27.835V26.61H25.835ZM12.9175 26.61V24.61V26.61ZM0 26.61H-2V28.61H2.95313e-07L0 26.61ZM0.983284 21.6667L2.83104 22.4321H2.83104L0.983284 21.6667ZM3.78344 17.476L5.19765 18.8902L5.19765 18.8902L3.78344 17.476ZM7.97417 14.6758L8.73954 16.5236H8.73954L7.97417 14.6758ZM17.1179 6.32956C17.1179 8.72071 15.1795 10.6591 12.7883 10.6591V14.6591C17.3886 14.6591 21.1179 10.9299 21.1179 6.32956H17.1179ZM12.7883 2C15.1795 2 17.1179 3.93841 17.1179 6.32956H21.1179C21.1179 1.72927 17.3886 -2 12.7883 -2V2ZM8.45874 6.32956C8.45874 3.93841 10.3972 2 12.7883 2V-2C8.18801 -2 4.45874 1.72927 4.45874 6.32956H8.45874ZM12.7883 10.6591C10.3972 10.6591 8.45874 8.72071 8.45874 6.32956H4.45874C4.45874 10.9299 8.18801 14.6591 12.7883 14.6591V10.6591ZM27.835 26.61C27.835 24.651 27.4491 22.7112 26.6994 20.9013L23.0039 22.4321C23.5526 23.7566 23.835 25.1763 23.835 26.61H27.835ZM12.9175 28.61H25.835V24.61H12.9175V28.61ZM2.95313e-07 28.61L12.9175 28.61V24.61L-2.95313e-07 24.61L2.95313e-07 28.61ZM-0.864475 20.9013C-1.61415 22.7112 -2 24.651 -2 26.61H2C2 25.1763 2.28239 23.7566 2.83104 22.4321L-0.864475 20.9013ZM2.36923 16.0618C0.984011 17.447 -0.114802 19.0915 -0.864475 20.9013L2.83104 22.4321C3.3797 21.1075 4.18387 19.904 5.19765 18.8902L2.36923 16.0618ZM7.20881 12.8281C5.39893 13.5777 3.75444 14.6765 2.36923 16.0618L5.19765 18.8902C6.21144 17.8764 7.41497 17.0722 8.73954 16.5236L7.20881 12.8281ZM12.9175 11.6925C10.9585 11.6925 9.01867 12.0784 7.2088 12.8281L8.73954 16.5236C10.0641 15.9749 11.4838 15.6925 12.9175 15.6925V11.6925ZM18.6261 12.8281C16.8163 12.0784 14.8765 11.6925 12.9175 11.6925V15.6925C14.3512 15.6925 15.7708 15.9749 17.0954 16.5236L18.6261 12.8281ZM23.4657 16.0618C22.0805 14.6765 20.436 13.5777 18.6261 12.8281L17.0954 16.5236C18.42 17.0722 19.6235 17.8764 20.6373 18.8902L23.4657 16.0618ZM26.6994 20.9013C25.9498 19.0915 24.8509 17.447 23.4657 16.0618L20.6373 18.8902C21.6511 19.904 22.4553 21.1075 23.0039 22.4321L26.6994 20.9013Z" fill="black" mask="url(#path-1-inside-1_7_161)"/>
</svg>
